<mxfile host="app.diagrams.net" modified="2023-11-25T04:07:51.481Z" agent="Mozilla/5.0 (Windows NT 10.0; Win64; x64) AppleWebKit/537.36 (KHTML, like Gecko) Chrome/119.0.0.0 Safari/537.36" etag="QFGwGEKPEZepfjh4czaO" version="22.1.4" type="device">
  <diagram id="R2lEEEUBdFMjLlhIrx00" name="Page-1">
    <mxGraphModel dx="2333" dy="1160" grid="1" gridSize="10" guides="1" tooltips="1" connect="1" arrows="1" fold="1" page="1" pageScale="1" pageWidth="850" pageHeight="1100" math="0" shadow="0" extFonts="Permanent Marker^https://fonts.googleapis.com/css?family=Permanent+Marker">
      <root>
        <mxCell id="0" />
        <mxCell id="1" parent="0" />
        <mxCell id="ghC45XDttmsH_aB_SOiP-15" value="" style="group" vertex="1" connectable="0" parent="1">
          <mxGeometry x="40" y="359.5" width="305" height="251" as="geometry" />
        </mxCell>
        <mxCell id="C-vyLk0tnHw3VtMMgP7b-23" value="User" style="shape=table;startSize=30;container=1;collapsible=1;childLayout=tableLayout;fixedRows=1;rowLines=0;fontStyle=1;align=center;resizeLast=1;" parent="ghC45XDttmsH_aB_SOiP-15" vertex="1">
          <mxGeometry width="305" height="250" as="geometry" />
        </mxCell>
        <mxCell id="C-vyLk0tnHw3VtMMgP7b-24" value="" style="shape=partialRectangle;collapsible=0;dropTarget=0;pointerEvents=0;fillColor=none;points=[[0,0.5],[1,0.5]];portConstraint=eastwest;top=0;left=0;right=0;bottom=1;" parent="C-vyLk0tnHw3VtMMgP7b-23" vertex="1">
          <mxGeometry y="30" width="305" height="30" as="geometry" />
        </mxCell>
        <mxCell id="C-vyLk0tnHw3VtMMgP7b-25" value="PK" style="shape=partialRectangle;overflow=hidden;connectable=0;fillColor=none;top=0;left=0;bottom=0;right=0;fontStyle=1;" parent="C-vyLk0tnHw3VtMMgP7b-24" vertex="1">
          <mxGeometry width="30" height="30" as="geometry">
            <mxRectangle width="30" height="30" as="alternateBounds" />
          </mxGeometry>
        </mxCell>
        <mxCell id="C-vyLk0tnHw3VtMMgP7b-26" value="id int NOT NULL " style="shape=partialRectangle;overflow=hidden;connectable=0;fillColor=none;top=0;left=0;bottom=0;right=0;align=left;spacingLeft=6;fontStyle=5;" parent="C-vyLk0tnHw3VtMMgP7b-24" vertex="1">
          <mxGeometry x="30" width="275" height="30" as="geometry">
            <mxRectangle width="275" height="30" as="alternateBounds" />
          </mxGeometry>
        </mxCell>
        <mxCell id="C-vyLk0tnHw3VtMMgP7b-27" value="" style="shape=partialRectangle;collapsible=0;dropTarget=0;pointerEvents=0;fillColor=none;points=[[0,0.5],[1,0.5]];portConstraint=eastwest;top=0;left=0;right=0;bottom=0;" parent="C-vyLk0tnHw3VtMMgP7b-23" vertex="1">
          <mxGeometry y="60" width="305" height="190" as="geometry" />
        </mxCell>
        <mxCell id="C-vyLk0tnHw3VtMMgP7b-28" value="" style="shape=partialRectangle;overflow=hidden;connectable=0;fillColor=none;top=0;left=0;bottom=0;right=0;" parent="C-vyLk0tnHw3VtMMgP7b-27" vertex="1">
          <mxGeometry width="30" height="190" as="geometry">
            <mxRectangle width="30" height="190" as="alternateBounds" />
          </mxGeometry>
        </mxCell>
        <mxCell id="C-vyLk0tnHw3VtMMgP7b-29" value="" style="shape=partialRectangle;overflow=hidden;connectable=0;fillColor=none;top=0;left=0;bottom=0;right=0;align=left;spacingLeft=6;" parent="C-vyLk0tnHw3VtMMgP7b-27" vertex="1">
          <mxGeometry x="30" width="275" height="190" as="geometry">
            <mxRectangle width="275" height="190" as="alternateBounds" />
          </mxGeometry>
        </mxCell>
        <mxCell id="ghC45XDttmsH_aB_SOiP-8" value="password                  varchar(40)   NOT NULL&#xa;&#xa;name                        varchar(40)" style="text;align=left;verticalAlign=top;spacingLeft=4;spacingRight=4;overflow=hidden;rotatable=0;points=[[0,0.5],[1,0.5]];portConstraint=eastwest;rounded=0;shadow=0;html=0;" vertex="1" parent="ghC45XDttmsH_aB_SOiP-15">
          <mxGeometry x="35" y="55" width="260" height="28" as="geometry" />
        </mxCell>
        <mxCell id="ghC45XDttmsH_aB_SOiP-9" value="name                        varchar(40)   NOT NULL" style="text;align=left;verticalAlign=top;spacingLeft=4;spacingRight=4;overflow=hidden;rotatable=0;points=[[0,0.5],[1,0.5]];portConstraint=eastwest;rounded=0;shadow=0;html=0;" vertex="1" parent="ghC45XDttmsH_aB_SOiP-15">
          <mxGeometry x="35" y="83" width="250" height="28" as="geometry" />
        </mxCell>
        <mxCell id="ghC45XDttmsH_aB_SOiP-10" value="profile_message      varchar(255)" style="text;align=left;verticalAlign=top;spacingLeft=4;spacingRight=4;overflow=hidden;rotatable=0;points=[[0,0.5],[1,0.5]];portConstraint=eastwest;rounded=0;shadow=0;html=0;" vertex="1" parent="ghC45XDttmsH_aB_SOiP-15">
          <mxGeometry x="35" y="111" width="190" height="28" as="geometry" />
        </mxCell>
        <mxCell id="ghC45XDttmsH_aB_SOiP-11" value="sex                           varchar(40)" style="text;align=left;verticalAlign=top;spacingLeft=4;spacingRight=4;overflow=hidden;rotatable=0;points=[[0,0.5],[1,0.5]];portConstraint=eastwest;rounded=0;shadow=0;html=0;" vertex="1" parent="ghC45XDttmsH_aB_SOiP-15">
          <mxGeometry x="35" y="139" width="190" height="28" as="geometry" />
        </mxCell>
        <mxCell id="ghC45XDttmsH_aB_SOiP-12" value="day_birth                  date()" style="text;align=left;verticalAlign=top;spacingLeft=4;spacingRight=4;overflow=hidden;rotatable=0;points=[[0,0.5],[1,0.5]];portConstraint=eastwest;rounded=0;shadow=0;html=0;" vertex="1" parent="ghC45XDttmsH_aB_SOiP-15">
          <mxGeometry x="35" y="167" width="190" height="28" as="geometry" />
        </mxCell>
        <mxCell id="ghC45XDttmsH_aB_SOiP-13" value="followings_count      int" style="text;align=left;verticalAlign=top;spacingLeft=4;spacingRight=4;overflow=hidden;rotatable=0;points=[[0,0.5],[1,0.5]];portConstraint=eastwest;rounded=0;shadow=0;html=0;" vertex="1" parent="ghC45XDttmsH_aB_SOiP-15">
          <mxGeometry x="35" y="195" width="190" height="28" as="geometry" />
        </mxCell>
        <mxCell id="ghC45XDttmsH_aB_SOiP-14" value="followers_count       int" style="text;align=left;verticalAlign=top;spacingLeft=4;spacingRight=4;overflow=hidden;rotatable=0;points=[[0,0.5],[1,0.5]];portConstraint=eastwest;rounded=0;shadow=0;html=0;" vertex="1" parent="ghC45XDttmsH_aB_SOiP-15">
          <mxGeometry x="35" y="223" width="190" height="28" as="geometry" />
        </mxCell>
        <mxCell id="ghC45XDttmsH_aB_SOiP-48" value="" style="group" vertex="1" connectable="0" parent="1">
          <mxGeometry x="570" y="400" width="305" height="150" as="geometry" />
        </mxCell>
        <mxCell id="ghC45XDttmsH_aB_SOiP-16" value="Post" style="shape=table;startSize=30;container=1;collapsible=1;childLayout=tableLayout;fixedRows=1;rowLines=0;fontStyle=1;align=center;resizeLast=1;" vertex="1" parent="ghC45XDttmsH_aB_SOiP-48">
          <mxGeometry width="305" height="150" as="geometry" />
        </mxCell>
        <mxCell id="ghC45XDttmsH_aB_SOiP-17" value="" style="shape=partialRectangle;collapsible=0;dropTarget=0;pointerEvents=0;fillColor=none;points=[[0,0.5],[1,0.5]];portConstraint=eastwest;top=0;left=0;right=0;bottom=1;" vertex="1" parent="ghC45XDttmsH_aB_SOiP-16">
          <mxGeometry y="30" width="305" height="30" as="geometry" />
        </mxCell>
        <mxCell id="ghC45XDttmsH_aB_SOiP-18" value="PK" style="shape=partialRectangle;overflow=hidden;connectable=0;fillColor=none;top=0;left=0;bottom=0;right=0;fontStyle=1;movable=0;resizable=0;rotatable=0;deletable=0;editable=0;locked=1;" vertex="1" parent="ghC45XDttmsH_aB_SOiP-17">
          <mxGeometry width="30" height="30" as="geometry">
            <mxRectangle width="30" height="30" as="alternateBounds" />
          </mxGeometry>
        </mxCell>
        <mxCell id="ghC45XDttmsH_aB_SOiP-19" value="id int NOT NULL " style="shape=partialRectangle;overflow=hidden;connectable=1;fillColor=none;top=0;left=0;bottom=0;right=0;align=left;spacingLeft=6;fontStyle=5;movable=1;resizable=1;rotatable=1;deletable=1;editable=1;locked=0;" vertex="1" parent="ghC45XDttmsH_aB_SOiP-17">
          <mxGeometry x="30" width="275" height="30" as="geometry">
            <mxRectangle width="275" height="30" as="alternateBounds" />
          </mxGeometry>
        </mxCell>
        <mxCell id="ghC45XDttmsH_aB_SOiP-25" value="" style="shape=tableRow;horizontal=0;startSize=0;swimlaneHead=0;swimlaneBody=0;fillColor=none;collapsible=0;dropTarget=0;points=[[0,0.5],[1,0.5]];portConstraint=eastwest;top=0;left=0;right=0;bottom=1;" vertex="1" parent="ghC45XDttmsH_aB_SOiP-16">
          <mxGeometry y="60" width="305" height="30" as="geometry" />
        </mxCell>
        <mxCell id="ghC45XDttmsH_aB_SOiP-26" value="PK" style="shape=partialRectangle;connectable=0;fillColor=none;top=0;left=0;bottom=0;right=0;fontStyle=1;overflow=hidden;whiteSpace=wrap;html=1;" vertex="1" parent="ghC45XDttmsH_aB_SOiP-25">
          <mxGeometry width="30" height="30" as="geometry">
            <mxRectangle width="30" height="30" as="alternateBounds" />
          </mxGeometry>
        </mxCell>
        <mxCell id="ghC45XDttmsH_aB_SOiP-27" value="post_id int NOT NULL" style="shape=partialRectangle;connectable=0;fillColor=none;top=0;left=0;bottom=0;right=0;align=left;spacingLeft=6;fontStyle=5;overflow=hidden;whiteSpace=wrap;html=1;" vertex="1" parent="ghC45XDttmsH_aB_SOiP-25">
          <mxGeometry x="30" width="275" height="30" as="geometry">
            <mxRectangle width="275" height="30" as="alternateBounds" />
          </mxGeometry>
        </mxCell>
        <mxCell id="ghC45XDttmsH_aB_SOiP-20" value="" style="shape=partialRectangle;collapsible=0;dropTarget=0;pointerEvents=0;fillColor=none;points=[[0,0.5],[1,0.5]];portConstraint=eastwest;top=0;left=0;right=0;bottom=0;" vertex="1" parent="ghC45XDttmsH_aB_SOiP-16">
          <mxGeometry y="90" width="305" height="60" as="geometry" />
        </mxCell>
        <mxCell id="ghC45XDttmsH_aB_SOiP-21" value="" style="shape=partialRectangle;overflow=hidden;connectable=0;fillColor=none;top=0;left=0;bottom=0;right=0;" vertex="1" parent="ghC45XDttmsH_aB_SOiP-20">
          <mxGeometry width="30" height="60" as="geometry">
            <mxRectangle width="30" height="60" as="alternateBounds" />
          </mxGeometry>
        </mxCell>
        <mxCell id="ghC45XDttmsH_aB_SOiP-22" value="" style="shape=partialRectangle;overflow=hidden;connectable=0;fillColor=none;top=0;left=0;bottom=0;right=0;align=left;spacingLeft=6;" vertex="1" parent="ghC45XDttmsH_aB_SOiP-20">
          <mxGeometry x="30" width="275" height="60" as="geometry">
            <mxRectangle width="275" height="60" as="alternateBounds" />
          </mxGeometry>
        </mxCell>
        <mxCell id="ghC45XDttmsH_aB_SOiP-28" value="context                     varchar(255)" style="text;align=left;verticalAlign=top;spacingLeft=4;spacingRight=4;overflow=hidden;rotatable=0;points=[[0,0.5],[1,0.5]];portConstraint=eastwest;rounded=0;shadow=0;html=0;" vertex="1" parent="ghC45XDttmsH_aB_SOiP-48">
          <mxGeometry x="30" y="90" width="190" height="28" as="geometry" />
        </mxCell>
        <mxCell id="ghC45XDttmsH_aB_SOiP-29" value="post_time                TIMESTAMP()" style="text;align=left;verticalAlign=top;spacingLeft=4;spacingRight=4;overflow=hidden;rotatable=0;points=[[0,0.5],[1,0.5]];portConstraint=eastwest;rounded=0;shadow=0;html=0;" vertex="1" parent="ghC45XDttmsH_aB_SOiP-48">
          <mxGeometry x="30" y="118" width="220" height="28" as="geometry" />
        </mxCell>
        <mxCell id="ghC45XDttmsH_aB_SOiP-113" value="" style="line;strokeWidth=2;html=1;" vertex="1" parent="ghC45XDttmsH_aB_SOiP-48">
          <mxGeometry x="-40" y="70" width="40" height="10" as="geometry" />
        </mxCell>
        <mxCell id="ghC45XDttmsH_aB_SOiP-56" value="" style="group" vertex="1" connectable="0" parent="1">
          <mxGeometry x="610" y="780" width="260" height="180" as="geometry" />
        </mxCell>
        <mxCell id="ghC45XDttmsH_aB_SOiP-49" value="" style="shape=table;startSize=0;container=1;collapsible=1;childLayout=tableLayout;fixedRows=1;rowLines=0;fontStyle=0;align=center;resizeLast=1;strokeColor=none;fillColor=none;collapsible=0;" vertex="1" parent="ghC45XDttmsH_aB_SOiP-56">
          <mxGeometry y="90" width="255.73770491803276" height="30" as="geometry" />
        </mxCell>
        <mxCell id="ghC45XDttmsH_aB_SOiP-50" value="" style="shape=tableRow;horizontal=0;startSize=0;swimlaneHead=0;swimlaneBody=0;fillColor=none;collapsible=0;dropTarget=0;points=[[0,0.5],[1,0.5]];portConstraint=eastwest;top=0;left=0;right=0;bottom=1;" vertex="1" parent="ghC45XDttmsH_aB_SOiP-49">
          <mxGeometry width="255.73770491803276" height="30" as="geometry" />
        </mxCell>
        <mxCell id="ghC45XDttmsH_aB_SOiP-51" value="PK" style="shape=partialRectangle;connectable=0;fillColor=none;top=0;left=0;bottom=0;right=0;fontStyle=1;overflow=hidden;whiteSpace=wrap;html=1;" vertex="1" parent="ghC45XDttmsH_aB_SOiP-50">
          <mxGeometry width="30" height="30" as="geometry">
            <mxRectangle width="30" height="30" as="alternateBounds" />
          </mxGeometry>
        </mxCell>
        <mxCell id="ghC45XDttmsH_aB_SOiP-52" value="comment_id int NOT NULL" style="shape=partialRectangle;connectable=0;fillColor=none;top=0;left=0;bottom=0;right=0;align=left;spacingLeft=6;fontStyle=5;overflow=hidden;whiteSpace=wrap;html=1;" vertex="1" parent="ghC45XDttmsH_aB_SOiP-50">
          <mxGeometry x="30" width="225.73770491803276" height="30" as="geometry">
            <mxRectangle width="225.73770491803276" height="30" as="alternateBounds" />
          </mxGeometry>
        </mxCell>
        <mxCell id="ghC45XDttmsH_aB_SOiP-34" value="Comment" style="shape=table;startSize=30;container=1;collapsible=1;childLayout=tableLayout;fixedRows=1;rowLines=0;fontStyle=1;align=center;resizeLast=1;" vertex="1" parent="ghC45XDttmsH_aB_SOiP-56">
          <mxGeometry width="260" height="180" as="geometry" />
        </mxCell>
        <mxCell id="ghC45XDttmsH_aB_SOiP-35" value="" style="shape=partialRectangle;collapsible=0;dropTarget=0;pointerEvents=0;fillColor=none;points=[[0,0.5],[1,0.5]];portConstraint=eastwest;top=0;left=0;right=0;bottom=1;" vertex="1" parent="ghC45XDttmsH_aB_SOiP-34">
          <mxGeometry y="30" width="260" height="30" as="geometry" />
        </mxCell>
        <mxCell id="ghC45XDttmsH_aB_SOiP-36" value="PK" style="shape=partialRectangle;overflow=hidden;connectable=0;fillColor=none;top=0;left=0;bottom=0;right=0;fontStyle=1;movable=0;resizable=0;rotatable=0;deletable=0;editable=0;locked=1;" vertex="1" parent="ghC45XDttmsH_aB_SOiP-35">
          <mxGeometry width="30" height="30" as="geometry">
            <mxRectangle width="30" height="30" as="alternateBounds" />
          </mxGeometry>
        </mxCell>
        <mxCell id="ghC45XDttmsH_aB_SOiP-37" value="id int NOT NULL " style="shape=partialRectangle;overflow=hidden;connectable=1;fillColor=none;top=0;left=0;bottom=0;right=0;align=left;spacingLeft=6;fontStyle=5;movable=1;resizable=1;rotatable=1;deletable=1;editable=1;locked=0;" vertex="1" parent="ghC45XDttmsH_aB_SOiP-35">
          <mxGeometry x="30" width="230" height="30" as="geometry">
            <mxRectangle width="230" height="30" as="alternateBounds" />
          </mxGeometry>
        </mxCell>
        <mxCell id="ghC45XDttmsH_aB_SOiP-38" value="" style="shape=tableRow;horizontal=0;startSize=0;swimlaneHead=0;swimlaneBody=0;fillColor=none;collapsible=0;dropTarget=0;points=[[0,0.5],[1,0.5]];portConstraint=eastwest;top=0;left=0;right=0;bottom=1;" vertex="1" parent="ghC45XDttmsH_aB_SOiP-34">
          <mxGeometry y="60" width="260" height="30" as="geometry" />
        </mxCell>
        <mxCell id="ghC45XDttmsH_aB_SOiP-39" value="PK" style="shape=partialRectangle;connectable=0;fillColor=none;top=0;left=0;bottom=0;right=0;fontStyle=1;overflow=hidden;whiteSpace=wrap;html=1;" vertex="1" parent="ghC45XDttmsH_aB_SOiP-38">
          <mxGeometry width="30" height="30" as="geometry">
            <mxRectangle width="30" height="30" as="alternateBounds" />
          </mxGeometry>
        </mxCell>
        <mxCell id="ghC45XDttmsH_aB_SOiP-40" value="post_id int NOT NULL" style="shape=partialRectangle;connectable=0;fillColor=none;top=0;left=0;bottom=0;right=0;align=left;spacingLeft=6;fontStyle=5;overflow=hidden;whiteSpace=wrap;html=1;" vertex="1" parent="ghC45XDttmsH_aB_SOiP-38">
          <mxGeometry x="30" width="230" height="30" as="geometry">
            <mxRectangle width="230" height="30" as="alternateBounds" />
          </mxGeometry>
        </mxCell>
        <mxCell id="ghC45XDttmsH_aB_SOiP-41" value="" style="shape=partialRectangle;collapsible=0;dropTarget=0;pointerEvents=0;fillColor=none;points=[[0,0.5],[1,0.5]];portConstraint=eastwest;top=0;left=0;right=0;bottom=0;" vertex="1" parent="ghC45XDttmsH_aB_SOiP-34">
          <mxGeometry y="90" width="260" height="90" as="geometry" />
        </mxCell>
        <mxCell id="ghC45XDttmsH_aB_SOiP-42" value="" style="shape=partialRectangle;overflow=hidden;connectable=0;fillColor=none;top=0;left=0;bottom=0;right=0;" vertex="1" parent="ghC45XDttmsH_aB_SOiP-41">
          <mxGeometry width="30" height="90" as="geometry">
            <mxRectangle width="30" height="90" as="alternateBounds" />
          </mxGeometry>
        </mxCell>
        <mxCell id="ghC45XDttmsH_aB_SOiP-43" value="" style="shape=partialRectangle;overflow=hidden;connectable=0;fillColor=none;top=0;left=0;bottom=0;right=0;align=left;spacingLeft=6;" vertex="1" parent="ghC45XDttmsH_aB_SOiP-41">
          <mxGeometry x="30" width="230" height="90" as="geometry">
            <mxRectangle width="230" height="90" as="alternateBounds" />
          </mxGeometry>
        </mxCell>
        <mxCell id="ghC45XDttmsH_aB_SOiP-53" value="comment_context   varchar(255)" style="text;align=left;verticalAlign=top;spacingLeft=4;spacingRight=4;overflow=hidden;rotatable=0;points=[[0,0.5],[1,0.5]];portConstraint=eastwest;rounded=0;shadow=0;html=0;" vertex="1" parent="ghC45XDttmsH_aB_SOiP-56">
          <mxGeometry x="25.57" y="120" width="214.43" height="28" as="geometry" />
        </mxCell>
        <mxCell id="ghC45XDttmsH_aB_SOiP-54" value="comment_time       TIMESTAMP()" style="text;align=left;verticalAlign=top;spacingLeft=4;spacingRight=4;overflow=hidden;rotatable=0;points=[[0,0.5],[1,0.5]];portConstraint=eastwest;rounded=0;shadow=0;html=0;" vertex="1" parent="ghC45XDttmsH_aB_SOiP-56">
          <mxGeometry x="25.57" y="148" width="204.43" height="28" as="geometry" />
        </mxCell>
        <mxCell id="ghC45XDttmsH_aB_SOiP-76" value="" style="group" vertex="1" connectable="0" parent="1">
          <mxGeometry x="90" y="780" width="240" height="180" as="geometry" />
        </mxCell>
        <mxCell id="ghC45XDttmsH_aB_SOiP-57" value="Reply" style="shape=table;startSize=30;container=1;collapsible=1;childLayout=tableLayout;fixedRows=1;rowLines=0;fontStyle=1;align=center;resizeLast=1;" vertex="1" parent="ghC45XDttmsH_aB_SOiP-76">
          <mxGeometry width="240" height="180" as="geometry" />
        </mxCell>
        <mxCell id="ghC45XDttmsH_aB_SOiP-58" value="" style="shape=partialRectangle;collapsible=0;dropTarget=0;pointerEvents=0;fillColor=none;points=[[0,0.5],[1,0.5]];portConstraint=eastwest;top=0;left=0;right=0;bottom=1;" vertex="1" parent="ghC45XDttmsH_aB_SOiP-57">
          <mxGeometry y="30" width="240" height="30" as="geometry" />
        </mxCell>
        <mxCell id="ghC45XDttmsH_aB_SOiP-59" value="PK" style="shape=partialRectangle;overflow=hidden;connectable=0;fillColor=none;top=0;left=0;bottom=0;right=0;fontStyle=1;movable=0;resizable=0;rotatable=0;deletable=0;editable=0;locked=1;" vertex="1" parent="ghC45XDttmsH_aB_SOiP-58">
          <mxGeometry width="30" height="30" as="geometry">
            <mxRectangle width="30" height="30" as="alternateBounds" />
          </mxGeometry>
        </mxCell>
        <mxCell id="ghC45XDttmsH_aB_SOiP-60" value="id int NOT NULL " style="shape=partialRectangle;overflow=hidden;connectable=1;fillColor=none;top=0;left=0;bottom=0;right=0;align=left;spacingLeft=6;fontStyle=5;movable=1;resizable=1;rotatable=1;deletable=1;editable=1;locked=0;" vertex="1" parent="ghC45XDttmsH_aB_SOiP-58">
          <mxGeometry x="30" width="210" height="30" as="geometry">
            <mxRectangle width="210" height="30" as="alternateBounds" />
          </mxGeometry>
        </mxCell>
        <mxCell id="ghC45XDttmsH_aB_SOiP-61" value="" style="shape=tableRow;horizontal=0;startSize=0;swimlaneHead=0;swimlaneBody=0;fillColor=none;collapsible=0;dropTarget=0;points=[[0,0.5],[1,0.5]];portConstraint=eastwest;top=0;left=0;right=0;bottom=1;" vertex="1" parent="ghC45XDttmsH_aB_SOiP-57">
          <mxGeometry y="60" width="240" height="30" as="geometry" />
        </mxCell>
        <mxCell id="ghC45XDttmsH_aB_SOiP-62" value="PK" style="shape=partialRectangle;connectable=0;fillColor=none;top=0;left=0;bottom=0;right=0;fontStyle=1;overflow=hidden;whiteSpace=wrap;html=1;" vertex="1" parent="ghC45XDttmsH_aB_SOiP-61">
          <mxGeometry width="30" height="30" as="geometry">
            <mxRectangle width="30" height="30" as="alternateBounds" />
          </mxGeometry>
        </mxCell>
        <mxCell id="ghC45XDttmsH_aB_SOiP-63" value="post_id int NOT NULL" style="shape=partialRectangle;connectable=0;fillColor=none;top=0;left=0;bottom=0;right=0;align=left;spacingLeft=6;fontStyle=5;overflow=hidden;whiteSpace=wrap;html=1;" vertex="1" parent="ghC45XDttmsH_aB_SOiP-61">
          <mxGeometry x="30" width="210" height="30" as="geometry">
            <mxRectangle width="210" height="30" as="alternateBounds" />
          </mxGeometry>
        </mxCell>
        <mxCell id="ghC45XDttmsH_aB_SOiP-64" value="" style="shape=partialRectangle;collapsible=0;dropTarget=0;pointerEvents=0;fillColor=none;points=[[0,0.5],[1,0.5]];portConstraint=eastwest;top=0;left=0;right=0;bottom=0;" vertex="1" parent="ghC45XDttmsH_aB_SOiP-57">
          <mxGeometry y="90" width="240" height="90" as="geometry" />
        </mxCell>
        <mxCell id="ghC45XDttmsH_aB_SOiP-65" value="" style="shape=partialRectangle;overflow=hidden;connectable=0;fillColor=none;top=0;left=0;bottom=0;right=0;" vertex="1" parent="ghC45XDttmsH_aB_SOiP-64">
          <mxGeometry width="30" height="90" as="geometry">
            <mxRectangle width="30" height="90" as="alternateBounds" />
          </mxGeometry>
        </mxCell>
        <mxCell id="ghC45XDttmsH_aB_SOiP-66" value="" style="shape=partialRectangle;overflow=hidden;connectable=0;fillColor=none;top=0;left=0;bottom=0;right=0;align=left;spacingLeft=6;" vertex="1" parent="ghC45XDttmsH_aB_SOiP-64">
          <mxGeometry x="30" width="210" height="90" as="geometry">
            <mxRectangle width="210" height="90" as="alternateBounds" />
          </mxGeometry>
        </mxCell>
        <mxCell id="ghC45XDttmsH_aB_SOiP-67" value="" style="shape=table;startSize=0;container=1;collapsible=1;childLayout=tableLayout;fixedRows=1;rowLines=0;fontStyle=0;align=center;resizeLast=1;strokeColor=none;fillColor=none;collapsible=0;" vertex="1" parent="ghC45XDttmsH_aB_SOiP-76">
          <mxGeometry y="90" width="236.0655737704918" height="30" as="geometry" />
        </mxCell>
        <mxCell id="ghC45XDttmsH_aB_SOiP-68" value="" style="shape=tableRow;horizontal=0;startSize=0;swimlaneHead=0;swimlaneBody=0;fillColor=none;collapsible=0;dropTarget=0;points=[[0,0.5],[1,0.5]];portConstraint=eastwest;top=0;left=0;right=0;bottom=1;" vertex="1" parent="ghC45XDttmsH_aB_SOiP-67">
          <mxGeometry width="236.0655737704918" height="30" as="geometry" />
        </mxCell>
        <mxCell id="ghC45XDttmsH_aB_SOiP-69" value="PK" style="shape=partialRectangle;connectable=0;fillColor=none;top=0;left=0;bottom=0;right=0;fontStyle=1;overflow=hidden;whiteSpace=wrap;html=1;" vertex="1" parent="ghC45XDttmsH_aB_SOiP-68">
          <mxGeometry width="30" height="30" as="geometry">
            <mxRectangle width="30" height="30" as="alternateBounds" />
          </mxGeometry>
        </mxCell>
        <mxCell id="ghC45XDttmsH_aB_SOiP-70" value="comment_id int NOT NULL" style="shape=partialRectangle;connectable=0;fillColor=none;top=0;left=0;bottom=0;right=0;align=left;spacingLeft=6;fontStyle=5;overflow=hidden;whiteSpace=wrap;html=1;" vertex="1" parent="ghC45XDttmsH_aB_SOiP-68">
          <mxGeometry x="30" width="206.0655737704918" height="30" as="geometry">
            <mxRectangle width="206.0655737704918" height="30" as="alternateBounds" />
          </mxGeometry>
        </mxCell>
        <mxCell id="ghC45XDttmsH_aB_SOiP-71" value="" style="shape=table;startSize=0;container=1;collapsible=1;childLayout=tableLayout;fixedRows=1;rowLines=0;fontStyle=0;align=center;resizeLast=1;strokeColor=none;fillColor=none;collapsible=0;" vertex="1" parent="ghC45XDttmsH_aB_SOiP-76">
          <mxGeometry y="120" width="236.0655737704918" height="30" as="geometry" />
        </mxCell>
        <mxCell id="ghC45XDttmsH_aB_SOiP-72" value="" style="shape=tableRow;horizontal=0;startSize=0;swimlaneHead=0;swimlaneBody=0;fillColor=none;collapsible=0;dropTarget=0;points=[[0,0.5],[1,0.5]];portConstraint=eastwest;top=0;left=0;right=0;bottom=1;" vertex="1" parent="ghC45XDttmsH_aB_SOiP-71">
          <mxGeometry width="236.0655737704918" height="30" as="geometry" />
        </mxCell>
        <mxCell id="ghC45XDttmsH_aB_SOiP-73" value="PK" style="shape=partialRectangle;connectable=0;fillColor=none;top=0;left=0;bottom=0;right=0;fontStyle=1;overflow=hidden;whiteSpace=wrap;html=1;" vertex="1" parent="ghC45XDttmsH_aB_SOiP-72">
          <mxGeometry width="30" height="30" as="geometry">
            <mxRectangle width="30" height="30" as="alternateBounds" />
          </mxGeometry>
        </mxCell>
        <mxCell id="ghC45XDttmsH_aB_SOiP-74" value="reply_id int NOT NULL" style="shape=partialRectangle;connectable=0;fillColor=none;top=0;left=0;bottom=0;right=0;align=left;spacingLeft=6;fontStyle=5;overflow=hidden;whiteSpace=wrap;html=1;" vertex="1" parent="ghC45XDttmsH_aB_SOiP-72">
          <mxGeometry x="30" width="206.0655737704918" height="30" as="geometry">
            <mxRectangle width="206.0655737704918" height="30" as="alternateBounds" />
          </mxGeometry>
        </mxCell>
        <mxCell id="ghC45XDttmsH_aB_SOiP-75" value="reply_context   varchar(255)" style="text;align=left;verticalAlign=top;spacingLeft=4;spacingRight=4;overflow=hidden;rotatable=0;points=[[0,0.5],[1,0.5]];portConstraint=eastwest;rounded=0;shadow=0;html=0;" vertex="1" parent="ghC45XDttmsH_aB_SOiP-76">
          <mxGeometry x="23.6" y="150" width="176.4" height="28" as="geometry" />
        </mxCell>
        <mxCell id="ghC45XDttmsH_aB_SOiP-77" value="Follow" style="shape=table;startSize=30;container=1;collapsible=1;childLayout=tableLayout;fixedRows=1;rowLines=0;fontStyle=1;align=center;resizeLast=1;" vertex="1" parent="1">
          <mxGeometry x="80" y="80" width="240" height="120" as="geometry" />
        </mxCell>
        <mxCell id="ghC45XDttmsH_aB_SOiP-78" value="" style="shape=partialRectangle;collapsible=0;dropTarget=0;pointerEvents=0;fillColor=none;points=[[0,0.5],[1,0.5]];portConstraint=eastwest;top=0;left=0;right=0;bottom=1;" vertex="1" parent="ghC45XDttmsH_aB_SOiP-77">
          <mxGeometry y="30" width="240" height="30" as="geometry" />
        </mxCell>
        <mxCell id="ghC45XDttmsH_aB_SOiP-79" value="PK" style="shape=partialRectangle;overflow=hidden;connectable=0;fillColor=none;top=0;left=0;bottom=0;right=0;fontStyle=1;movable=0;resizable=0;rotatable=0;deletable=0;editable=0;locked=1;" vertex="1" parent="ghC45XDttmsH_aB_SOiP-78">
          <mxGeometry width="30" height="30" as="geometry">
            <mxRectangle width="30" height="30" as="alternateBounds" />
          </mxGeometry>
        </mxCell>
        <mxCell id="ghC45XDttmsH_aB_SOiP-80" value="following_id int NOT NULL" style="shape=partialRectangle;overflow=hidden;connectable=1;fillColor=none;top=0;left=0;bottom=0;right=0;align=left;spacingLeft=6;fontStyle=5;movable=1;resizable=1;rotatable=1;deletable=1;editable=1;locked=0;" vertex="1" parent="ghC45XDttmsH_aB_SOiP-78">
          <mxGeometry x="30" width="210" height="30" as="geometry">
            <mxRectangle width="210" height="30" as="alternateBounds" />
          </mxGeometry>
        </mxCell>
        <mxCell id="ghC45XDttmsH_aB_SOiP-81" value="" style="shape=tableRow;horizontal=0;startSize=0;swimlaneHead=0;swimlaneBody=0;fillColor=none;collapsible=0;dropTarget=0;points=[[0,0.5],[1,0.5]];portConstraint=eastwest;top=0;left=0;right=0;bottom=1;" vertex="1" parent="ghC45XDttmsH_aB_SOiP-77">
          <mxGeometry y="60" width="240" height="30" as="geometry" />
        </mxCell>
        <mxCell id="ghC45XDttmsH_aB_SOiP-82" value="PK" style="shape=partialRectangle;connectable=0;fillColor=none;top=0;left=0;bottom=0;right=0;fontStyle=1;overflow=hidden;whiteSpace=wrap;html=1;" vertex="1" parent="ghC45XDttmsH_aB_SOiP-81">
          <mxGeometry width="30" height="30" as="geometry">
            <mxRectangle width="30" height="30" as="alternateBounds" />
          </mxGeometry>
        </mxCell>
        <mxCell id="ghC45XDttmsH_aB_SOiP-83" value="follower_id int NOT NULL" style="shape=partialRectangle;connectable=0;fillColor=none;top=0;left=0;bottom=0;right=0;align=left;spacingLeft=6;fontStyle=5;overflow=hidden;whiteSpace=wrap;html=1;" vertex="1" parent="ghC45XDttmsH_aB_SOiP-81">
          <mxGeometry x="30" width="210" height="30" as="geometry">
            <mxRectangle width="210" height="30" as="alternateBounds" />
          </mxGeometry>
        </mxCell>
        <mxCell id="ghC45XDttmsH_aB_SOiP-84" value="" style="shape=partialRectangle;collapsible=0;dropTarget=0;pointerEvents=0;fillColor=none;points=[[0,0.5],[1,0.5]];portConstraint=eastwest;top=0;left=0;right=0;bottom=0;" vertex="1" parent="ghC45XDttmsH_aB_SOiP-77">
          <mxGeometry y="90" width="240" height="30" as="geometry" />
        </mxCell>
        <mxCell id="ghC45XDttmsH_aB_SOiP-85" value="" style="shape=partialRectangle;overflow=hidden;connectable=0;fillColor=none;top=0;left=0;bottom=0;right=0;" vertex="1" parent="ghC45XDttmsH_aB_SOiP-84">
          <mxGeometry width="30" height="30" as="geometry">
            <mxRectangle width="30" height="30" as="alternateBounds" />
          </mxGeometry>
        </mxCell>
        <mxCell id="ghC45XDttmsH_aB_SOiP-86" value="" style="shape=partialRectangle;overflow=hidden;connectable=0;fillColor=none;top=0;left=0;bottom=0;right=0;align=left;spacingLeft=6;" vertex="1" parent="ghC45XDttmsH_aB_SOiP-84">
          <mxGeometry x="30" width="210" height="30" as="geometry">
            <mxRectangle width="210" height="30" as="alternateBounds" />
          </mxGeometry>
        </mxCell>
        <mxCell id="ghC45XDttmsH_aB_SOiP-99" value="" style="group" vertex="1" connectable="0" parent="1">
          <mxGeometry x="600.28" y="80" width="244.43000000000006" height="120" as="geometry" />
        </mxCell>
        <mxCell id="ghC45XDttmsH_aB_SOiP-87" value="Like" style="shape=table;startSize=30;container=1;collapsible=1;childLayout=tableLayout;fixedRows=1;rowLines=0;fontStyle=1;align=center;resizeLast=1;" vertex="1" parent="ghC45XDttmsH_aB_SOiP-99">
          <mxGeometry width="240" height="120" as="geometry" />
        </mxCell>
        <mxCell id="ghC45XDttmsH_aB_SOiP-88" value="" style="shape=partialRectangle;collapsible=0;dropTarget=0;pointerEvents=0;fillColor=none;points=[[0,0.5],[1,0.5]];portConstraint=eastwest;top=0;left=0;right=0;bottom=1;" vertex="1" parent="ghC45XDttmsH_aB_SOiP-87">
          <mxGeometry y="30" width="240" height="30" as="geometry" />
        </mxCell>
        <mxCell id="ghC45XDttmsH_aB_SOiP-89" value="PK" style="shape=partialRectangle;overflow=hidden;connectable=0;fillColor=none;top=0;left=0;bottom=0;right=0;fontStyle=1;movable=0;resizable=0;rotatable=0;deletable=0;editable=0;locked=1;" vertex="1" parent="ghC45XDttmsH_aB_SOiP-88">
          <mxGeometry width="30" height="30" as="geometry">
            <mxRectangle width="30" height="30" as="alternateBounds" />
          </mxGeometry>
        </mxCell>
        <mxCell id="ghC45XDttmsH_aB_SOiP-90" value="id int NOT NULL" style="shape=partialRectangle;overflow=hidden;connectable=1;fillColor=none;top=0;left=0;bottom=0;right=0;align=left;spacingLeft=6;fontStyle=5;movable=1;resizable=1;rotatable=1;deletable=1;editable=1;locked=0;" vertex="1" parent="ghC45XDttmsH_aB_SOiP-88">
          <mxGeometry x="30" width="210" height="30" as="geometry">
            <mxRectangle width="210" height="30" as="alternateBounds" />
          </mxGeometry>
        </mxCell>
        <mxCell id="ghC45XDttmsH_aB_SOiP-91" value="" style="shape=tableRow;horizontal=0;startSize=0;swimlaneHead=0;swimlaneBody=0;fillColor=none;collapsible=0;dropTarget=0;points=[[0,0.5],[1,0.5]];portConstraint=eastwest;top=0;left=0;right=0;bottom=1;" vertex="1" parent="ghC45XDttmsH_aB_SOiP-87">
          <mxGeometry y="60" width="240" height="30" as="geometry" />
        </mxCell>
        <mxCell id="ghC45XDttmsH_aB_SOiP-92" value="PK" style="shape=partialRectangle;connectable=0;fillColor=none;top=0;left=0;bottom=0;right=0;fontStyle=1;overflow=hidden;whiteSpace=wrap;html=1;" vertex="1" parent="ghC45XDttmsH_aB_SOiP-91">
          <mxGeometry width="30" height="30" as="geometry">
            <mxRectangle width="30" height="30" as="alternateBounds" />
          </mxGeometry>
        </mxCell>
        <mxCell id="ghC45XDttmsH_aB_SOiP-93" value="post_id int NOT NULL" style="shape=partialRectangle;connectable=0;fillColor=none;top=0;left=0;bottom=0;right=0;align=left;spacingLeft=6;fontStyle=5;overflow=hidden;whiteSpace=wrap;html=1;" vertex="1" parent="ghC45XDttmsH_aB_SOiP-91">
          <mxGeometry x="30" width="210" height="30" as="geometry">
            <mxRectangle width="210" height="30" as="alternateBounds" />
          </mxGeometry>
        </mxCell>
        <mxCell id="ghC45XDttmsH_aB_SOiP-94" value="" style="shape=partialRectangle;collapsible=0;dropTarget=0;pointerEvents=0;fillColor=none;points=[[0,0.5],[1,0.5]];portConstraint=eastwest;top=0;left=0;right=0;bottom=0;" vertex="1" parent="ghC45XDttmsH_aB_SOiP-87">
          <mxGeometry y="90" width="240" height="30" as="geometry" />
        </mxCell>
        <mxCell id="ghC45XDttmsH_aB_SOiP-95" value="" style="shape=partialRectangle;overflow=hidden;connectable=0;fillColor=none;top=0;left=0;bottom=0;right=0;" vertex="1" parent="ghC45XDttmsH_aB_SOiP-94">
          <mxGeometry width="30" height="30" as="geometry">
            <mxRectangle width="30" height="30" as="alternateBounds" />
          </mxGeometry>
        </mxCell>
        <mxCell id="ghC45XDttmsH_aB_SOiP-96" value="" style="shape=partialRectangle;overflow=hidden;connectable=0;fillColor=none;top=0;left=0;bottom=0;right=0;align=left;spacingLeft=6;" vertex="1" parent="ghC45XDttmsH_aB_SOiP-94">
          <mxGeometry x="30" width="210" height="30" as="geometry">
            <mxRectangle width="210" height="30" as="alternateBounds" />
          </mxGeometry>
        </mxCell>
        <mxCell id="ghC45XDttmsH_aB_SOiP-98" value="like_count   int" style="text;align=left;verticalAlign=top;spacingLeft=4;spacingRight=4;overflow=hidden;rotatable=0;points=[[0,0.5],[1,0.5]];portConstraint=eastwest;rounded=0;shadow=0;html=0;" vertex="1" parent="ghC45XDttmsH_aB_SOiP-99">
          <mxGeometry x="30" y="90" width="214.43" height="28" as="geometry" />
        </mxCell>
        <mxCell id="ghC45XDttmsH_aB_SOiP-101" value="&lt;font style=&quot;font-size: 15px;&quot;&gt;liking&lt;/font&gt;" style="html=1;whiteSpace=wrap;aspect=fixed;shape=isoRectangle;" vertex="1" parent="1">
          <mxGeometry x="647.5" y="240" width="150" height="90" as="geometry" />
        </mxCell>
        <mxCell id="ghC45XDttmsH_aB_SOiP-102" value="&lt;font style=&quot;font-size: 15px;&quot;&gt;posting&lt;/font&gt;" style="html=1;whiteSpace=wrap;aspect=fixed;shape=isoRectangle;" vertex="1" parent="1">
          <mxGeometry x="380" y="430" width="150" height="90" as="geometry" />
        </mxCell>
        <mxCell id="ghC45XDttmsH_aB_SOiP-103" value="&lt;font style=&quot;font-size: 15px;&quot;&gt;following&lt;/font&gt;" style="html=1;whiteSpace=wrap;aspect=fixed;shape=isoRectangle;" vertex="1" parent="1">
          <mxGeometry x="125" y="240" width="150" height="90" as="geometry" />
        </mxCell>
        <mxCell id="ghC45XDttmsH_aB_SOiP-104" value="&lt;font style=&quot;font-size: 15px;&quot;&gt;replying&lt;/font&gt;" style="html=1;whiteSpace=wrap;aspect=fixed;shape=isoRectangle;" vertex="1" parent="1">
          <mxGeometry x="388.33" y="827.5" width="141.67" height="85" as="geometry" />
        </mxCell>
        <mxCell id="ghC45XDttmsH_aB_SOiP-105" value="&lt;font style=&quot;font-size: 15px;&quot;&gt;commenting&lt;/font&gt;" style="html=1;whiteSpace=wrap;aspect=fixed;shape=isoRectangle;" vertex="1" parent="1">
          <mxGeometry x="647.49" y="620" width="150" height="90" as="geometry" />
        </mxCell>
        <mxCell id="ghC45XDttmsH_aB_SOiP-106" value="" style="endArrow=none;html=1;rounded=0;" edge="1" parent="1">
          <mxGeometry width="50" height="50" relative="1" as="geometry">
            <mxPoint x="200" y="360" as="sourcePoint" />
            <mxPoint x="200" y="330" as="targetPoint" />
          </mxGeometry>
        </mxCell>
        <mxCell id="ghC45XDttmsH_aB_SOiP-108" value="" style="endArrow=none;html=1;rounded=0;exitX=0.505;exitY=0.04;exitDx=0;exitDy=0;exitPerimeter=0;" edge="1" parent="1" source="ghC45XDttmsH_aB_SOiP-103">
          <mxGeometry width="50" height="50" relative="1" as="geometry">
            <mxPoint x="150" y="250" as="sourcePoint" />
            <mxPoint x="200" y="200" as="targetPoint" />
          </mxGeometry>
        </mxCell>
        <mxCell id="ghC45XDttmsH_aB_SOiP-109" value="" style="endArrow=classic;html=1;rounded=0;entryX=0.5;entryY=0;entryDx=0;entryDy=0;exitX=0.486;exitY=0.996;exitDx=0;exitDy=0;exitPerimeter=0;" edge="1" parent="1" source="ghC45XDttmsH_aB_SOiP-101" target="ghC45XDttmsH_aB_SOiP-16">
          <mxGeometry width="50" height="50" relative="1" as="geometry">
            <mxPoint x="720" y="330" as="sourcePoint" />
            <mxPoint x="770" y="280" as="targetPoint" />
          </mxGeometry>
        </mxCell>
        <mxCell id="ghC45XDttmsH_aB_SOiP-111" value="" style="shape=link;html=1;rounded=0;exitX=0.514;exitY=1.052;exitDx=0;exitDy=0;exitPerimeter=0;" edge="1" parent="1" source="ghC45XDttmsH_aB_SOiP-94">
          <mxGeometry relative="1" as="geometry">
            <mxPoint x="721.5600000000002" y="201.0999999999999" as="sourcePoint" />
            <mxPoint x="723.44" y="240" as="targetPoint" />
          </mxGeometry>
        </mxCell>
        <mxCell id="ghC45XDttmsH_aB_SOiP-114" value="" style="endArrow=classic;html=1;rounded=0;entryX=0.997;entryY=0.282;entryDx=0;entryDy=0;entryPerimeter=0;exitX=0;exitY=0.491;exitDx=0;exitDy=0;exitPerimeter=0;" edge="1" parent="1" source="ghC45XDttmsH_aB_SOiP-102" target="C-vyLk0tnHw3VtMMgP7b-27">
          <mxGeometry width="50" height="50" relative="1" as="geometry">
            <mxPoint x="380" y="470" as="sourcePoint" />
            <mxPoint x="430" y="420" as="targetPoint" />
          </mxGeometry>
        </mxCell>
        <mxCell id="ghC45XDttmsH_aB_SOiP-115" value="" style="endArrow=none;html=1;rounded=0;" edge="1" parent="1">
          <mxGeometry width="50" height="50" relative="1" as="geometry">
            <mxPoint x="720" y="780" as="sourcePoint" />
            <mxPoint x="720" y="710" as="targetPoint" />
          </mxGeometry>
        </mxCell>
        <mxCell id="ghC45XDttmsH_aB_SOiP-118" value="" style="endArrow=classic;html=1;rounded=0;entryX=0.496;entryY=0.985;entryDx=0;entryDy=0;entryPerimeter=0;" edge="1" parent="1" target="ghC45XDttmsH_aB_SOiP-20">
          <mxGeometry width="50" height="50" relative="1" as="geometry">
            <mxPoint x="720" y="620" as="sourcePoint" />
            <mxPoint x="770" y="570" as="targetPoint" />
          </mxGeometry>
        </mxCell>
        <mxCell id="ghC45XDttmsH_aB_SOiP-119" value="" style="endArrow=classic;html=1;rounded=0;entryX=-0.004;entryY=0.018;entryDx=0;entryDy=0;entryPerimeter=0;" edge="1" parent="1" target="ghC45XDttmsH_aB_SOiP-41">
          <mxGeometry width="50" height="50" relative="1" as="geometry">
            <mxPoint x="530" y="870" as="sourcePoint" />
            <mxPoint x="614.17" y="908.01" as="targetPoint" />
          </mxGeometry>
        </mxCell>
        <mxCell id="ghC45XDttmsH_aB_SOiP-120" value="" style="endArrow=none;html=1;rounded=0;entryX=0.008;entryY=0.489;entryDx=0;entryDy=0;entryPerimeter=0;" edge="1" parent="1" target="ghC45XDttmsH_aB_SOiP-104">
          <mxGeometry width="50" height="50" relative="1" as="geometry">
            <mxPoint x="330" y="870" as="sourcePoint" />
            <mxPoint x="380" y="820" as="targetPoint" />
          </mxGeometry>
        </mxCell>
      </root>
    </mxGraphModel>
  </diagram>
</mxfile>
